<?xml version="1.0" encoding="UTF-8"?>
<svg version="1.1" xmlns="http://www.w3.org/2000/svg" width="1024" height="1024">

<!-- circle -->
<path 
  transform="translate(864,153)"
  d="M0 0 C0.96099609 0.00451172 1.92199219 0.00902344 2.91210938 0.01367188 C5.25397422 0.02532294 7.59570181 0.04167975 9.9375 0.0625 C10.3184474 21.59481918 8.87267116 42.06733231 3.9375 63.0625 C3.76911621 63.78501953 3.60073242 64.50753906 3.42724609 65.25195312 C-4.55913475 98.30010241 -25.0339832 126.81486538 -53.97729492 144.49609375 C-76.0500805 157.66852 -100.81883301 169.0625 -127.0625 169.0625 C-115.46982432 130.87486247 -86.93229798 93.11037501 -57.0625 67.0625 C-61.4516374 69.88314686 -65.47300456 72.92452903 -69.4375 76.3125 C-70.00694336 76.79847656 -70.57638672 77.28445312 -71.16308594 77.78515625 C-89.48646567 93.55928668 -104.31193919 114.01214712 -116.0625 135.0625 C-116.43181641 135.70832031 -116.80113281 136.35414063 -117.18164062 137.01953125 C-123.76112434 148.56445157 -128.79688035 160.48414718 -133.0625 173.0625 C-133.33642578 173.85914063 -133.61035156 174.65578125 -133.89257812 175.4765625 C-140.51683898 195.3327429 -140.78170018 216.96902209 -131.4375 235.9375 C-127.69234915 243.21553298 -123.50533441 250.22564712 -119.21240234 257.19042969 C-116.49553877 261.61355281 -113.84067334 266.07437487 -111.1796875 270.53125 C-109.89069448 272.68999482 -108.58438579 274.83245016 -107.2578125 276.96875 C-96.20817265 295.09626975 -89.71045705 314.64675977 -84.83203125 335.1875 C-83.94915559 338.48595931 -82.82741222 341.65642432 -81.6875 344.875 C-68.42398305 383.2938107 -69.05076814 426.77954156 -78.0625 466.0625 C-78.29743164 467.10833252 -78.29743164 467.10833252 -78.53710938 468.17529297 C-88.03414169 509.6656803 -109.32321856 547.29853911 -136.0625 580.0625 C-136.4848291 580.58924316 -136.9071582 581.11598633 -137.34228516 581.65869141 C-144.24213051 590.23379694 -151.87125161 598.0784244 -159.625 605.875 C-160.34931213 606.60721268 -160.34931213 606.60721268 -161.08825684 607.35421753 C-167.72989433 614.05180804 -174.63632385 620.2411302 -182.0625 626.0625 C-182.87033936 626.69873291 -183.67817871 627.33496582 -184.51049805 627.99047852 C-214.5879045 651.4267341 -248.8414557 669.66007665 -285.51904297 680.32177734 C-287.85442709 681.00190361 -290.17870823 681.71182655 -292.50390625 682.42578125 C-297.31227141 683.8520877 -302.16184718 685.00018562 -307.0625 686.0625 C-308.10921875 686.29243652 -309.1559375 686.52237305 -310.234375 686.75927734 C-329.3379963 690.74910323 -348.20054995 691.54428274 -367.6875 691.5625 C-368.82410065 691.56690094 -369.96070129 691.57130188 -371.13174438 691.57583618 C-391.62163321 691.60893957 -411.51850466 689.5778974 -431.5625 685.3125 C-433.39047119 684.925177 -433.39047119 684.925177 -435.25537109 684.5300293 C-481.68996813 674.40033378 -525.90011991 653.00086165 -562.0625 622.0625 C-563.20946355 621.10135736 -564.35661054 620.14043362 -565.50390625 619.1796875 C-577.932121 608.6833281 -589.93884257 597.50775842 -600 584.68359375 C-602.23548194 581.84266879 -604.5819694 579.11698484 -606.9375 576.375 C-616.06588482 565.43227783 -623.90186099 553.36642427 -631.0625 541.0625 C-631.47467773 540.35706055 -631.88685547 539.65162109 -632.31152344 538.92480469 C-672.03866862 470.35267608 -680.83178759 388.57399781 -661.34765625 312.19921875 C-649.85605151 269.10720591 -629.89154371 229.15026178 -601.0625 195.0625 C-600.1378579 193.95065632 -599.21338704 192.8386702 -598.2890625 191.7265625 C-589.00882315 180.64238893 -579.21296584 170.27074568 -567.84765625 161.29296875 C-565.36350335 159.30355598 -562.97099024 157.23722132 -560.58374023 155.13354492 C-552.31349798 147.90871637 -543.33580104 141.91872783 -534.0625 136.0625 C-533.26924316 135.56073242 -532.47598633 135.05896484 -531.65869141 134.54199219 C-470.15847782 95.95702865 -397.70649558 81.20941638 -325.6875 89.3125 C-324.23126221 89.47613037 -324.23126221 89.47613037 -322.74560547 89.64306641 C-314.45467151 90.78432252 -304.51608247 93.25322471 -299.0625 100.0625 C-294.29245141 107.38243632 -291.37690191 114.2870962 -293.0625 123.0625 C-295.6892301 131.24254533 -300.58763457 136.73720212 -307.86328125 141.15625 C-315.79709571 144.82585155 -325.50514192 143.46556814 -333.91293335 142.33940125 C-343.27677807 141.0853186 -352.49850997 140.70173462 -361.9375 140.75 C-362.68818756 140.75182281 -363.43887512 140.75364563 -364.21231079 140.75552368 C-378.63311856 140.81385367 -392.80386998 141.81445691 -407.0625 144.0625 C-408.0515332 144.2181543 -409.04056641 144.37380859 -410.05957031 144.53417969 C-434.64545934 148.61418313 -458.76455611 157.00788461 -481.0625 168.0625 C-481.77051758 168.40571289 -482.47853516 168.74892578 -483.20800781 169.10253906 C-526.1409131 190.04299911 -560.89723378 224.18226727 -585.0625 265.0625 C-585.4642041 265.74183594 -585.8659082 266.42117188 -586.27978516 267.12109375 C-617.52995325 320.91345809 -626.76490534 389.44121393 -611.75 449.8125 C-610.91454948 452.91555589 -610.00209439 455.98958014 -609.0625 459.0625 C-608.70164307 460.28839844 -608.70164307 460.28839844 -608.33349609 461.5390625 C-597.79931171 496.98269767 -578.8050323 529.47498839 -553.52734375 556.41015625 C-551.56701132 558.51961064 -549.70195317 560.65195942 -547.875 562.875 C-545.25054209 565.97799154 -542.32519141 568.58031551 -539.2265625 571.203125 C-537.77483924 572.45045401 -536.35257162 573.7328413 -534.9609375 575.046875 C-485.72056222 621.41066478 -417.50994742 639.04520556 -351.58325195 637.16149902 C-331.85492802 636.38669657 -312.7809521 632.17505308 -294.0625 626.0625 C-293.23282715 625.79598633 -292.4031543 625.52947266 -291.54833984 625.25488281 C-258.22585874 614.35928591 -227.67582389 595.8932116 -202.0625 572.0625 C-200.67089179 570.8493031 -199.27522812 569.64073786 -197.875 568.4375 C-190.44085005 561.92518464 -184.21935973 554.79048821 -178.0625 547.0625 C-177.17343642 545.96463368 -176.28410594 544.86698347 -175.39453125 543.76953125 C-134.49033833 492.95312838 -119.68503428 432.38319388 -121.02215576 368.03881836 C-121.06105294 366.13338648 -121.09339728 364.22782429 -121.12548828 362.32226562 C-121.72477503 329.98741636 -129.59541976 304.70233567 -145.25 276.375 C-150.01220593 267.60354472 -153.58206277 258.40386219 -157.0625 249.0625 C-157.475 247.99 -157.8875 246.9175 -158.3125 245.8125 C-163.62945606 230.52625133 -164.92631779 213.48367101 -166.125 197.4375 C-169.19600325 156.72204684 -188.47608259 116.8724216 -215.0625 86.0625 C-215.76761719 85.23621094 -216.47273438 84.40992188 -217.19921875 83.55859375 C-225.84883208 73.04480953 -225.84883208 73.04480953 -237.0625 66.0625 C-236.27488281 66.73152344 -235.48726562 67.40054688 -234.67578125 68.08984375 C-206.13324039 92.98545428 -183.60618884 133.6771863 -174.0625 170.0625 C-212.07837172 164.57666535 -243.78755101 144.89427067 -266.9921875 114.23046875 C-273.81077726 104.99934457 -279.44883034 95.56657809 -284.0625 85.0625 C-284.33787598 84.45180664 -284.61325195 83.84111328 -284.89697266 83.21191406 C-295.94253013 58.27119175 -298.90867449 28.52203923 -292.0625 2.0625 C-260.6150456 3.95850037 -232.80506521 17.03870297 -208.0625 36.0625 C-207.05058594 36.83207031 -206.03867187 37.60164063 -204.99609375 38.39453125 C-173.59677701 63.18346552 -161.9766914 99.58134675 -156.0625 138.0625 C-155.61069835 142.39371388 -155.30127658 146.71533689 -155.0625 151.0625 C-154.94245605 150.41514893 -154.82241211 149.76779785 -154.69873047 149.10083008 C-145.14008436 98.11089334 -127.56674901 56.87800971 -84.0625 26.0625 C-59.04432713 9.14970456 -30.2550197 -0.27370581 0 0 Z "
/>

<!-- leaf -->
<path
  fill="#37A029" 
  transform="translate(864,153)"
  d="M0 0 C0.96099609 0.00451172 1.92199219 0.00902344 2.91210938 0.01367188 C5.25397422 0.02532294 7.59570181 0.04167975 9.9375 0.0625 C10.3184474 21.59481918 8.87267116 42.06733231 3.9375 63.0625 C3.76911621 63.78501953 3.60073242 64.50753906 3.42724609 65.25195312 C-4.55913475 98.30010241 -25.0339832 126.81486538 -53.97729492 144.49609375 C-76.0500805 157.66852 -100.81883301 169.0625 -127.0625 169.0625 C-115.46982432 130.87486247 -86.93229798 93.11037501 -57.0625 67.0625 C-61.4516374 69.88314686 -65.47300456 72.92452903 -69.4375 76.3125 C-70.00694336 76.79847656 -70.57638672 77.28445312 -71.16308594 77.78515625 C-89.48646567 93.55928668 -104.31193919 114.01214712 -116.0625 135.0625 C-116.43181641 135.70832031 -116.80113281 136.35414063 -117.18164062 137.01953125 C-123.76112434 148.56445157 -128.79688035 160.48414718 -133.0625 173.0625 C-133.33642578 173.85914063 -133.61035156 174.65578125 -133.89257812 175.4765625 C-140.51683898 195.3327429 -140.78170018 216.96902209 -131.4375 235.9375 C-127.69234915 243.21553298 -123.50533441 250.22564712 -119.21240234 257.19042969 C-116.49553877 261.61355281 -113.84067334 266.07437487 -111.1796875 270.53125 C-109.89069448 272.68999482 -108.58438579 274.83245016 -107.2578125 276.96875 C-99.68150046 289.39809141 -93.79887167 302.77081494 -89.5625 316.6875 C-89.19789673 317.87569336 -89.19789673 317.87569336 -88.82592773 319.08789062 C-87.2068689 324.71180335 -86.47325989 330.23062918 -86.0625 336.0625 C-87.02929688 336.01609375 -87.99609375 335.9696875 -88.9921875 335.921875 C-99.6020174 335.6277411 -107.33242205 336.59469073 -115.5625 343.75 C-116.50609375 344.65298828 -116.50609375 344.65298828 -117.46875 345.57421875 C-119.0625 347.0625 -119.0625 347.0625 -121.0625 348.0625 C-121.15748779 347.35343506 -121.25247559 346.64437012 -121.3503418 345.91381836 C-124.88625635 320.02924504 -132.61786173 299.23315496 -145.25 276.375 C-150.01220593 267.60354472 -153.58206277 258.40386219 -157.0625 249.0625 C-157.68125 247.45375 -157.68125 247.45375 -158.3125 245.8125 C-163.62945606 230.52625133 -164.92631779 213.48367101 -166.125 197.4375 C-169.19600325 156.72204684 -188.47608259 116.8724216 -215.0625 86.0625 C-215.76761719 85.23621094 -216.47273438 84.40992188 -217.19921875 83.55859375 C-225.84883208 73.04480953 -225.84883208 73.04480953 -237.0625 66.0625 C-236.27488281 66.73152344 -235.48726562 67.40054688 -234.67578125 68.08984375 C-206.13324039 92.98545428 -183.60618884 133.6771863 -174.0625 170.0625 C-212.07837172 164.57666535 -243.78755101 144.89427067 -266.9921875 114.23046875 C-273.81077726 104.99934457 -279.44883034 95.56657809 -284.0625 85.0625 C-284.33787598 84.45180664 -284.61325195 83.84111328 -284.89697266 83.21191406 C-295.94253013 58.27119175 -298.90867449 28.52203923 -292.0625 2.0625 C-260.6150456 3.95850037 -232.80506521 17.03870297 -208.0625 36.0625 C-206.54462891 37.21685547 -206.54462891 37.21685547 -204.99609375 38.39453125 C-173.59677701 63.18346552 -161.9766914 99.58134675 -156.0625 138.0625 C-155.61069835 142.39371388 -155.30127658 146.71533689 -155.0625 151.0625 C-154.94245605 150.41514893 -154.82241211 149.76779785 -154.69873047 149.10083008 C-145.14008436 98.11089334 -127.56674901 56.87800971 -84.0625 26.0625 C-59.04432713 9.14970456 -30.2550197 -0.27370581 0 0 Z "
/>

</svg>
